# xmcd
#
# Track frame offsets:
#	150
#	11496
#	23535
#	35773
#	47563
#	59541
#	71942
#	82422
#	93491
#	103188
#	117679
#	130742
#	142605
#	154787
#	166278
#	176574
#	188039
#	200060
#	212002
#	224308
#
# Disc length: 3164 seconds
#
# Revision: 0
# Processed by: cddbd v1.5.2PL0 Copyright (c) Steve Scherf et al.
# Submitted via: dBpowerAMP V4.0
#
DISCID=270c5a14
DTITLE=Bob Wills and His Texas Playboys - The King of Western Swing  CD 2
DYEAR=1900
DGENRE=Country
TTITLE0=Home in San Antone
TTITLE1=Liberty
TTITLE2=Goodbye Liza Jane
TTITLE3=Texas Playboy Rag
TTITLE4=Roly Poly
TTITLE5=Stay a Little Longer
TTITLE6=Baby, Won't You Please Come Home
TTITLE7=Dinah
TTITLE8=A Good Man Is Hard To Find
TTITLE9=I'm a Ding Dong Daddy
TTITLE10=Milk Cow Blues
TTITLE11=Bob Wills Boogie
TTITLE12=Cotton Eyed Joe
TTITLE13=Can't Get Enough of Texas
TTITLE14=Bubbles in my Beer
TTITLE15=Little Cowboy Lament
TTITLE16=Keeper of my Heart
TTITLE17=Ida Red Likes To Boogie
TTITLE18=Boot Heel Rag
TTITLE19=Faded Love
EXTD=
EXTT0=
EXTT1=
EXTT2=
EXTT3=
EXTT4=
EXTT5=
EXTT6=
EXTT7=
EXTT8=
EXTT9=
EXTT10=
EXTT11=
EXTT12=
EXTT13=
EXTT14=
EXTT15=
EXTT16=
EXTT17=
EXTT18=
EXTT19=
PLAYORDER=
